<svg preserveAspectRatio="none" width="100%" height="100%" overflow="visible" style="display: block;" viewBox="0 0 27 27" fill="none" xmlns="http://www.w3.org/2000/svg">
<g id="ant-design:user-outlined">
<path id="Vector" d="M22.7154 22.6377C22.2137 21.4589 21.4856 20.3881 20.5718 19.485C19.6607 18.5794 18.5814 17.8573 17.3936 17.3587C17.383 17.3534 17.3723 17.3508 17.3617 17.3455C19.0186 16.1583 20.0957 14.2245 20.0957 12.0427C20.0957 8.42839 17.1436 5.5 13.5 5.5C9.85641 5.5 6.9043 8.42839 6.9043 12.0427C6.9043 14.2245 7.98142 16.1583 9.63832 17.3481C9.62769 17.3534 9.61705 17.356 9.60641 17.3613C8.41493 17.8599 7.34579 18.5749 6.42824 19.4877C5.51522 20.3914 4.78729 21.462 4.28464 22.6403C3.79082 23.7939 3.52449 25.0306 3.50007 26.2837C3.49936 26.3118 3.50434 26.3398 3.51471 26.3661C3.52508 26.3923 3.54064 26.4162 3.56047 26.4363C3.5803 26.4565 3.604 26.4725 3.63016 26.4834C3.65633 26.4944 3.68444 26.5 3.71283 26.5H5.30857C5.42559 26.5 5.51867 26.4077 5.52133 26.2942C5.57452 24.2575 6.39898 22.3501 7.85642 20.9044C9.36439 19.4085 11.367 18.5854 13.5 18.5854C15.633 18.5854 17.6356 19.4085 19.1436 20.9044C20.601 22.3501 21.4255 24.2575 21.4787 26.2942C21.4813 26.4103 21.5744 26.5 21.6914 26.5H23.2872C23.3156 26.5 23.3437 26.4944 23.3698 26.4834C23.396 26.4725 23.4197 26.4565 23.4395 26.4363C23.4594 26.4162 23.4749 26.3923 23.4853 26.3661C23.4957 26.3398 23.5006 26.3118 23.4999 26.2837C23.4733 25.0226 23.21 23.7959 22.7154 22.6377ZM13.5 16.5804C12.2793 16.5804 11.1303 16.1082 10.266 15.2508C9.40162 14.3933 8.92556 13.2536 8.92556 12.0427C8.92556 10.8318 9.40162 9.69209 10.266 8.83467C11.1303 7.97726 12.2793 7.50503 13.5 7.50503C14.7207 7.50503 15.8697 7.97726 16.734 8.83467C17.5984 9.69209 18.0744 10.8318 18.0744 12.0427C18.0744 13.2536 17.5984 14.3933 16.734 15.2508C15.8697 16.1082 14.7207 16.5804 13.5 16.5804Z" fill="var(--fill-0, #47464B)"/>
</g>
</svg>
