<?xml version="1.0" encoding="UTF-8" standalone="no"?>
<svg
   viewBox="0 0 129.80057 73.700934"
   height="73.700935"
   width="129.80057"
   xml:space="preserve"
   id="svg2"
   version="1.1"
   xmlns="http://www.w3.org/2000/svg"
   xmlns:svg="http://www.w3.org/2000/svg"
   xmlns:rdf="http://www.w3.org/1999/02/22-rdf-syntax-ns#"
   xmlns:cc="http://creativecommons.org/ns#"
   xmlns:dc="http://purl.org/dc/elements/1.1/"><metadata
     id="metadata8"><rdf:RDF><cc:Work
         rdf:about=""><dc:format>image/svg+xml</dc:format><dc:type
           rdf:resource="http://purl.org/dc/dcmitype/StillImage" /></cc:Work></rdf:RDF></metadata><defs
     id="defs6"><clipPath
       id="clipPath18"
       clipPathUnits="userSpaceOnUse"><path
         id="path16"
         d="M 0,841.89 H 595.28 V 0 H 0 Z" /></clipPath></defs><g
     id="g9245"><g
       id="g9203"><g
         transform="matrix(1.3333333,0,0,-1.3333333,127.3339,51.762266)"
         id="g750"
         style="fill:#00238e;fill-opacity:1"><path
           id="path752"
           style="fill:#00238e;fill-opacity:1;fill-rule:nonzero;stroke:none"
           d="M 0,0 H -2.221 V -15.809 H 0 v 9.441 h 1.85 v 1.535 H 0 Z" /></g><g
         transform="matrix(1.3333333,0,0,-1.3333333,118.1229,56.284406)"
         id="g754"
         style="fill:#00238e;fill-opacity:1"><path
           id="path756"
           style="fill:#00238e;fill-opacity:1;fill-rule:nonzero;stroke:none"
           d="M 0,0 V 3.264 H -2.221 V 0 c 0,-2.669 -1.062,-4.888 -3.55,-6.437 l 0.974,-1.259 c 1.649,0.866 2.883,2.173 3.688,3.592 0.806,-1.419 2.041,-2.726 3.687,-3.592 l 0.977,1.259 C 1.068,-4.888 0,-2.669 0,0" /></g><g
         transform="matrix(1.3333333,0,0,-1.3333333,29.1335,57.286936)"
         id="g758"
         style="fill:#00238e;fill-opacity:1"><path
           id="path760"
           style="fill:#00238e;fill-opacity:1;fill-rule:nonzero;stroke:none"
           d="M 0,0 V 4.144 H -2.223 V -7.369 H 0 v 5.834 H 1.844 V 0 Z" /></g><g
         transform="matrix(1.3333333,0,0,-1.3333333,15.5813,58.781736)"
         id="g762"
         style="fill:#00238e;fill-opacity:1"><path
           id="path764"
           style="fill:#00238e;fill-opacity:1;fill-rule:nonzero;stroke:none"
           d="M 0,0 C 0,1.35 0.838,2.442 1.873,2.442 2.908,2.442 3.748,1.35 3.748,0 3.748,-1.353 2.908,-2.443 1.873,-2.443 0.838,-2.443 0,-1.353 0,0 m 5.971,0 c 0,1.204 -0.569,2.217 -1.457,2.88 H 6.066 V 4.416 H 2.959 V 5.818 H 0.734 V 4.416 H -2.373 V 2.88 h 1.607 C -1.656,2.217 -2.223,1.204 -2.223,0 c 0,-2.174 1.834,-3.932 4.096,-3.932 2.262,0 4.098,1.758 4.098,3.932" /></g><g
         transform="matrix(1.3333333,0,0,-1.3333333,29.2871,72.774006)"
         id="g766"
         style="fill:#00238e;fill-opacity:1"><path
           id="path768"
           style="fill:#00238e;fill-opacity:1;fill-rule:nonzero;stroke:none"
           d="m 0,0 v 1.535 h -8.328 v 3.433 h -2.223 V 1.31 c 0,-0.679 0.535,-1.31 1.397,-1.31 z" /></g><g
         transform="matrix(1.3333333,0,0,-1.3333333,54.998,52.047336)"
         id="g770"
         style="fill:#00238e;fill-opacity:1"><path
           id="path772"
           style="fill:#00238e;fill-opacity:1;fill-rule:nonzero;stroke:none"
           d="m 0,0 v -1.533 -5.395 -0.029 c 0,-0.678 0.537,-1.31 1.398,-1.31 h 2.856 v -4.628 h -5.068 v -1.532 h 12.361 v 1.532 H 6.475 v 4.628 h 4.004 v 1.535 H 2.225 v 5.199 h 8.254 V 0 Z" /></g><g
         transform="matrix(1.3333333,0,0,-1.3333333,43.5215,64.912006)"
         id="g774"
         style="fill:#00238e;fill-opacity:1"><path
           id="path776"
           style="fill:#00238e;fill-opacity:1;fill-rule:nonzero;stroke:none"
           d="M 0,0 V 2.654 H 5.307 V 4.188 H 4.189 v 4.15 c 0,0.678 -0.539,1.31 -1.398,1.31 H 1.965 -6.744 V 8.115 H 1.965 V 4.188 H -7.523 V 2.654 h 5.302 V 0 H -6.744 V -1.533 H 1.965 V -5.946 H 4.189 V 0 Z" /></g><g
         transform="matrix(1.3333333,0,0,-1.3333333,74.0579,62.570806)"
         id="g778"
         style="fill:#00238e;fill-opacity:1"><path
           id="path780"
           style="fill:#00238e;fill-opacity:1;fill-rule:nonzero;stroke:none"
           d="m 0,0 c 0,-0.681 0.539,-1.313 1.4,-1.313 h 2.971 v -3.689 h -5.187 v -1.532 h 12.597 v 1.532 H 6.594 v 3.689 h 4.117 V 0.225 H 2.223 v 2.193 h 8.488 v 4.164 c 0,0.678 -0.537,1.311 -1.398,1.311 H 0 V 6.359 H 8.49 V 3.953 H 0 Z" /></g><g
         transform="matrix(1.3333333,0,0,-1.3333333,93.3261,52.047336)"
         id="g782"
         style="fill:#00238e;fill-opacity:1"><path
           id="path784"
           style="fill:#00238e;fill-opacity:1;fill-rule:nonzero;stroke:none"
           d="m 0,0 v -1.533 h 8.594 v -5.043 h -3.1 v 2.983 H 3.271 V -6.576 H -1.133 V -8.111 H 12.17 v 1.535 h -1.356 v 5.043 0.222 C 10.814,-0.633 10.277,0 9.416,0 Z" /></g><g
         transform="matrix(1.3333333,0,0,-1.3333333,100.5865,71.706266)"
         id="g786"
         style="fill:#00238e;fill-opacity:1"><path
           id="path788"
           style="fill:#00238e;fill-opacity:1;fill-rule:nonzero;stroke:none"
           d="m 0,0 c -1.4,0 -2.535,0.967 -2.535,2.154 0,1.189 1.135,2.149 2.535,2.149 1.402,0 2.535,-0.96 2.535,-2.149 C 2.535,0.967 1.402,0 0,0 m 0,5.801 c -2.627,0 -4.758,-1.634 -4.758,-3.647 0,-2.015 2.131,-3.65 4.758,-3.65 2.629,0 4.76,1.635 4.76,3.65 0,2.013 -2.131,3.647 -4.76,3.647" /></g></g><g
       id="g9213"><path
         style="fill:#eb2333;fill-opacity:1;fill-rule:nonzero;stroke:none;stroke-width:0.424835"
         d="M 81.751021,25.53993 C 78.717432,28.5254 75.132879,29.1361 70.68206,29.1361 H 32.536447 c -3.035252,0 -5.730305,-2.45276 -6.989877,-5.90787 h -9.91062 c 1.80389,8.33906 8.6942,14.56722 16.900497,14.56722 H 70.68206 c 5.426611,0 12.394917,-0.72852 18.168366,-6.41237 l 6.244755,-6.14518 -6.520234,-6.41568 c -3.723951,3.66586 -6.823926,6.71771 -6.823926,6.71771"
         id="path4899" /><path
         style="fill:#eb2333;fill-opacity:1;fill-rule:nonzero;stroke:none;stroke-width:0.424835"
         d="m 32.536447,8.65935 h 24.864514 c 1.0986,0 2.320003,1.21144 2.320003,2.95228 0,1.74248 -1.221403,2.95725 -2.320003,2.95725 H 25.54657 c -0.48292,1.32264 -0.75508,2.79296 -0.75508,4.32967 0,1.53672 0.27216,3.00539 0.75508,4.32968 h 31.854391 c 6.584956,0 11.941868,-5.21088 11.941868,-11.6166 C 69.342829,5.20921 63.985917,0 57.400961,0 H 32.536447 C 24.33015,0 17.43984,6.22816 15.63595,14.56888 h 9.91062 c 1.259572,-3.45677 3.954625,-5.90953 6.989877,-5.90953"
         id="path4901" /><path
         style="fill:#85353a;fill-opacity:1;fill-rule:nonzero;stroke:none;stroke-width:0.424835"
         d="m 24.78983,18.89855 c 0,-1.53671 0.27382,-3.00538 0.75674,-4.32967 h -9.91062 c -0.30203,1.39233 -0.46632,2.83943 -0.46632,4.32967 0,1.49025 0.16429,2.93734 0.46632,4.32968 h 9.91062 c -0.48292,-1.32429 -0.75674,-2.79296 -0.75674,-4.32968"
         id="path4903" /><path
         style="fill:#eb2333;fill-opacity:1;fill-rule:nonzero;stroke:none;stroke-width:0.424835"
         d="M 15.63595,14.56888 H 4.81093 C 2.15239,14.56888 0,16.50719 0,18.89855 c 0,2.39137 2.15239,4.32968 4.81093,4.32968 h 10.82502 c -0.30203,-1.39234 -0.46632,-2.83943 -0.46632,-4.32968 0,-1.49024 0.16429,-2.939 0.46632,-4.32967"
         id="path4905" /><path
         style="fill:#eb2333;fill-opacity:1;fill-rule:nonzero;stroke:none;stroke-width:0.424835"
         d="m 108.28501,12.25551 c 3.03193,-2.9838 6.61814,-3.59616 11.06896,-3.59616 h 3.16801 c 2.65689,0 4.80928,-1.93831 4.80928,-4.32968 C 127.33126,1.93831 125.17887,0 122.52198,0 h -3.16801 c -5.42661,0 -12.39491,0.72852 -18.17003,6.41237 0,0 -2.701685,2.6602 -6.088759,5.99416 l 6.516909,6.41569"
         id="path4907" /><path
         style="fill:#007dc2;fill-opacity:1;fill-rule:nonzero;stroke:none;stroke-width:0.424835"
         d="M 88.226449,5.66392 C 85.476635,2.95891 82.049737,0.8895 78.254428,0.12944 c -2.588843,-0.51943 -5.210881,0.70861 -5.922811,3.01202 -0.711932,2.3034 0.784953,4.68979 3.345582,5.33036 2.162345,0.541 3.894882,1.50518 5.448188,3.03525 l 7.45122,7.31515 c 2.122517,-2.08934 4.447499,-4.3778 6.518574,-6.41569"
         id="path4909" /><path
         style="fill:#007dc2;fill-opacity:1;fill-rule:nonzero;stroke:none;stroke-width:0.424835"
         d="m 122.58007,29.06143 h -3.16802 c -4.45081,0 -8.03537,-0.61237 -11.06896,-3.59618 l -6.731,-6.64303 -6.516909,6.41568 6.148499,6.07051 c 5.77346,5.68218 12.74342,6.41236 18.16837,6.41236 h 3.16802 c 2.65688,0 4.81093,-1.93997 4.81093,-4.32967 0,-2.39136 -2.15405,-4.32967 -4.81093,-4.32967"
         id="path4911" /><path
         style="fill:#283a8c;fill-opacity:1;fill-rule:nonzero;stroke:none;stroke-width:0.424835"
         d="m 95.095181,12.40653 c -2.071075,2.03789 -4.396057,4.32635 -6.520234,6.41569 l 6.520234,6.41568 6.516909,-6.41568"
         id="path4913" /></g></g></svg>
