<svg preserveAspectRatio="none" width="100%" height="100%" overflow="visible" style="display: block;" viewBox="0 0 20 18" fill="none" xmlns="http://www.w3.org/2000/svg">
<g id="Container">
<path id="Icon" d="M2 18C1.45 18 0.979167 17.8042 0.5875 17.4125C0.195833 17.0208 0 16.55 0 16V2C0 1.45 0.195833 0.979167 0.5875 0.5875C0.979167 0.195833 1.45 0 2 0H18C18.55 0 19.0208 0.195833 19.4125 0.5875C19.8042 0.979167 20 1.45 20 2V16C20 16.55 19.8042 17.0208 19.4125 17.4125C19.0208 17.8042 18.55 18 18 18H2V18M2 16H18V16V16V2V2V2H2V2V2V16V16V16V16M3 14H8V12H3V14V14M12.55 12L17.5 7.05L16.075 5.625L12.55 9.175L11.125 7.75L9.725 9.175L12.55 12V12M3 10H8V8H3V10V10M3 6H8V4H3V6V6M2 16V16V16V16V2V2V2V2V2V2V16V16V16V16" fill="var(--fill-0, #494551)"/>
</g>
</svg>
