<svg preserveAspectRatio="none" width="100%" height="100%" overflow="visible" style="display: block;" viewBox="0 0 20 20" fill="none" xmlns="http://www.w3.org/2000/svg">
<g id="ph:sidebar-simple-light">
<path id="Vector" d="M16.875 3.28125H3.125C2.83492 3.28125 2.55672 3.39648 2.3516 3.6016C2.14648 3.80672 2.03125 4.08492 2.03125 4.375V15.625C2.03125 15.9151 2.14648 16.1933 2.3516 16.3984C2.55672 16.6035 2.83492 16.7188 3.125 16.7188H16.875C17.1651 16.7188 17.4433 16.6035 17.6484 16.3984C17.8535 16.1933 17.9688 15.9151 17.9688 15.625V4.375C17.9688 4.08492 17.8535 3.80672 17.6484 3.6016C17.4433 3.39648 17.1651 3.28125 16.875 3.28125ZM2.96875 15.625V4.375C2.96875 4.33356 2.98521 4.29382 3.01451 4.26451C3.04382 4.23521 3.08356 4.21875 3.125 4.21875H6.40625V15.7812H3.125C3.08356 15.7812 3.04382 15.7648 3.01451 15.7355C2.98521 15.7062 2.96875 15.6664 2.96875 15.625ZM17.0312 15.625C17.0312 15.6664 17.0148 15.7062 16.9855 15.7355C16.9562 15.7648 16.9164 15.7812 16.875 15.7812H7.34375V4.21875H16.875C16.9164 4.21875 16.9562 4.23521 16.9855 4.26451C17.0148 4.29382 17.0312 4.33356 17.0312 4.375V15.625Z" fill="var(--fill-0, #494551)"/>
</g>
</svg>
