<svg preserveAspectRatio="none" width="100%" height="100%" overflow="visible" style="display: block;" viewBox="0 0 18 20" fill="none" xmlns="http://www.w3.org/2000/svg">
<g id="carbon:report-growth">
<path id="Vector" d="M14.7273 19H3.27273C2.57082 19 2 18.4234 2 17.7143V4.21429C2 3.50521 2.57082 2.92857 3.27273 2.92857H5.18182V2.28571C5.18182 1.57664 5.75264 1 6.45455 1H11.5455C12.2474 1 12.8182 1.57664 12.8182 2.28571V2.92857H14.7273C15.4292 2.92857 16 3.50521 16 4.21429V17.7143C16 18.4234 15.4292 19 14.7273 19ZM3.27273 4.21429V17.7143H14.7273V4.21429H12.8182V6.14286H5.18182V4.21429H3.27273ZM6.45455 4.85714H11.5455V2.28571H6.45455V4.85714ZM6.90445 14.9545L6.00464 14.0455L10.0093 10H7.09091V8.71429H12.1818V13.8571H10.9091V10.909L6.90445 14.9545Z" fill="var(--fill-0, #494551)"/>
</g>
</svg>
